# xmcd
#
# Track frame offsets:
# 150
# 18022
# 33042
# 51128
#
# Disc length: 1129 seconds
#
# Revision: 0
# Processed by: cddbd v1.5.1PL0 Copyright (c) Steve Scherf et al.
# Submitted via: Audion 3.0.2 (http://www.panic.com/audion/)
#
DISCID=1f046704
DTITLE=Zena Allen - Service of Song
DYEAR=1900
DGENRE=
TTITLE0=xx
TTITLE1=xc
TTITLE2=xv
TTITLE3=xb
EXTD=
EXTT0=
EXTT1=
EXTT2=
EXTT3=
PLAYORDER=
